<svg width="510" height="510" viewBox="0 0 510 510" fill="none" xmlns="http://www.w3.org/2000/svg">
<rect x="0.5" y="0.5" width="509" height="509" fill="white" stroke="#F2F4F7"/>
<path d="M343.487 165.087C344.272 164.2 344.097 163.083 342.905 162.768C341.935 162.512 340.369 162.949 340.19 164.095C339.861 166.18 342.411 166.302 343.487 165.087Z" fill="#66DD98"/>
<path d="M308.906 157.423C307.676 158.12 308.753 201.528 309.467 201.387C326.413 197.958 361.637 193.287 362.03 192.908C362.556 192.386 366.08 155.392 366.323 150.048C364.07 147.637 309.993 156.807 308.906 157.423ZM343.704 159.862C344.32 159.994 344.894 160.274 345.377 160.678C345.86 161.082 346.238 161.597 346.478 162.179C346.718 162.761 346.813 163.392 346.755 164.019C346.696 164.646 346.486 165.249 346.143 165.777C345.527 166.78 344.558 167.516 343.427 167.84C342.488 168.047 341.522 168.106 340.565 168.015C340.005 167.968 339.46 167.806 338.966 167.539C338.471 167.272 338.037 166.906 337.691 166.463C335.506 162.744 339.556 158.745 343.704 159.862ZM349.56 169.964C349.611 170.054 349.642 170.155 349.648 170.258C349.655 170.362 349.638 170.466 349.599 170.562C349.56 170.659 349.499 170.745 349.422 170.814C349.345 170.884 349.253 170.935 349.153 170.963C348.289 171.091 347.778 170.716 345.288 169.456C344.327 168.97 345.169 167.595 346.126 168.03C348.916 169.281 349.208 169.352 349.556 169.964H349.56ZM338.872 169.964C335.796 174.971 335.8 176.838 334.541 178.822C334.212 179.34 333.262 179.176 333.309 178.492C333.966 175.099 335.413 171.909 337.533 169.179C338.077 168.354 339.401 169.109 338.872 169.964ZM325.162 168.075C327.723 166.601 330.598 165.759 333.549 165.619C334.353 165.547 334.507 166.845 333.739 167.02C331.013 167.644 328.34 168.576 325.597 169.102C325.466 169.135 325.328 169.119 325.208 169.059C325.088 168.999 324.993 168.898 324.941 168.774C324.888 168.65 324.882 168.512 324.922 168.384C324.963 168.256 325.048 168.146 325.162 168.075ZM354.245 173.47C352.563 175.335 352.316 175.077 341.389 183.228C338.537 185.36 334.707 187.995 331.173 185.545C329.661 184.497 329.644 183.054 328.828 181.606C327.5 179.262 324.778 181.312 323.047 182.374C317.166 185.976 315.678 190.111 313.589 192.85C313.488 193.012 313.332 193.132 313.15 193.189C312.967 193.246 312.771 193.236 312.595 193.161C312.42 193.087 312.276 192.952 312.191 192.781C312.106 192.611 312.084 192.415 312.129 192.23C312.892 188.321 316.179 184.533 319.067 181.943C321.512 179.75 325.605 176.115 329.165 177.356C332.823 178.62 331.488 183.763 335.265 183.047C336.602 182.631 337.839 181.946 338.902 181.035C348.809 174.046 349.692 172.656 352.599 171.33C352.885 171.177 353.216 171.131 353.532 171.2C353.849 171.268 354.131 171.446 354.329 171.703C354.526 171.96 354.626 172.278 354.611 172.602C354.595 172.925 354.466 173.233 354.245 173.47ZM357.907 158.975C356.155 159.868 354.254 159.472 349.76 160.825C348.731 161.137 348.404 159.657 349.334 159.269C351.755 158.257 355.015 156.662 357.688 157.268C357.865 157.318 358.025 157.42 358.145 157.56C358.266 157.7 358.343 157.872 358.367 158.056C358.39 158.239 358.36 158.426 358.278 158.592C358.197 158.758 358.069 158.896 357.909 158.99L357.907 158.975Z" fill="#66DD98"/>
<path d="M253.98 268.579C254.456 268.971 255.028 269.228 255.636 269.326C256.245 269.424 256.869 269.358 257.444 269.136C258.019 268.913 258.524 268.542 258.908 268.06C259.293 267.578 259.542 267.002 259.631 266.392C259.791 264.088 259.705 261.772 259.375 259.486C259.448 257.208 259.122 254.935 258.411 252.769C258.198 252.296 257.512 252.486 257.382 252.906C256.237 256.561 257.821 262.818 257.416 264.843C257.017 266.836 256.082 267.01 254.357 267.187C254.192 267.185 254.03 267.237 253.898 267.337C253.766 267.436 253.67 267.577 253.627 267.737C253.584 267.896 253.595 268.066 253.659 268.218C253.723 268.371 253.836 268.498 253.98 268.579Z" fill="#0A2540"/>
<path d="M265.432 251.912C265.354 251.643 265.208 251.399 265.008 251.203C264.808 251.007 264.56 250.866 264.289 250.795C264.018 250.724 263.733 250.724 263.462 250.796C263.192 250.868 262.944 251.009 262.744 251.205C260.796 253.62 261.452 255.655 262.936 255.994C263.439 256.123 263.973 256.051 264.424 255.794C264.876 255.537 265.21 255.116 265.357 254.617C265.605 253.736 265.63 252.806 265.432 251.912Z" fill="#0A2540"/>
<path d="M245.49 248.344C245.384 248.166 245.233 248.019 245.053 247.916C244.873 247.814 244.669 247.76 244.462 247.76C244.255 247.76 244.051 247.814 243.871 247.916C243.69 248.019 243.54 248.166 243.433 248.344C241.777 251.878 243.787 253.822 244.68 253.76C245.574 253.698 247.319 251.548 245.49 248.344Z" fill="#0A2540"/>
<path d="M241.029 246.332C243.396 245.196 245.906 244.385 248.49 243.921C249.166 243.746 249.253 242.576 248.49 242.467C246.989 242.304 245.471 242.467 244.04 242.945C242.608 243.424 241.297 244.206 240.196 245.238C239.567 245.743 240.364 246.713 241.029 246.332Z" fill="#0A2540"/>
<path d="M269.232 248.112C268.311 246.641 267.039 244.594 265.171 244.275C264.963 244.224 264.744 244.235 264.542 244.306C264.34 244.377 264.162 244.506 264.032 244.675C263.901 244.845 263.822 245.05 263.805 245.263C263.788 245.477 263.833 245.691 263.935 245.88C264.752 247.321 266.51 248.176 267.657 249.335C267.832 249.502 268.061 249.601 268.302 249.613C268.543 249.626 268.781 249.551 268.972 249.403C269.163 249.254 269.294 249.042 269.342 248.805C269.39 248.568 269.351 248.322 269.232 248.112Z" fill="#0A2540"/>
<path d="M268.41 265.505C271.597 260.228 274.805 253.308 272.562 247.044C272.3 246.321 271.136 246.174 270.94 247.044C270.301 249.896 270.379 252.799 269.851 255.677C269.367 258.82 268.475 261.886 267.197 264.798C267.116 264.958 267.1 265.142 267.15 265.314C267.201 265.486 267.316 265.632 267.471 265.722C267.625 265.812 267.809 265.84 267.983 265.8C268.158 265.76 268.31 265.654 268.41 265.505Z" fill="#0A2540"/>
<path d="M280.726 215.609C280.677 215.925 283.115 218.617 278.735 219.587C275.821 220.226 268.659 211.38 266.706 209.519C260.045 203.165 247.567 204.664 240.13 216.366C240.262 216.153 228.952 215.33 219.074 225.4C211.112 233.519 214.084 245.309 216.38 249.808C214.875 250.613 213.575 251.753 212.581 253.14C211.654 254.436 210.993 255.902 210.636 257.455C210.279 259.008 210.233 260.616 210.501 262.187C210.769 263.757 211.346 265.259 212.198 266.606C213.05 267.952 214.161 269.116 215.465 270.031C217.326 271.463 220.413 273.215 222.926 272.704C220.859 277.399 219.602 282.41 219.208 287.525C218.356 305.728 226.191 312.266 233.032 317.827C244.602 327.238 267.787 327.238 274.291 317.049C281.751 305.377 271.824 304.189 268.354 282.925C267.505 277.904 267.035 272.826 266.949 267.735C265.109 268.376 263.113 268.421 261.245 267.865C261.13 273.535 254.392 272.177 251.653 269.234C248.669 266.021 247.757 266.004 243.127 265.808C235.204 265.476 231.19 257.318 231.437 250.282C231.789 245.844 232.731 241.474 234.238 237.285C237.021 236.786 239.668 235.709 242.01 234.124C244.352 232.539 246.335 230.481 247.833 228.083C250.335 233.362 254.638 237.575 259.968 239.965C265.299 242.355 271.307 242.765 276.912 241.122C280.651 240.11 288.875 235.908 289.521 229.65C291.015 215.599 281.152 212.928 280.726 215.609ZM223.706 270.828C222.115 269.906 220.468 269.086 218.773 268.372C207.365 261.387 216.041 249.892 221.365 250.866C222.694 251.322 223.893 252.09 224.864 253.105C225.834 254.12 226.548 255.353 226.944 256.7C228.233 260.4 226.072 265.128 223.706 270.828ZM247.179 276.106C252.508 280.476 253.48 278.001 256.072 278.664C256.313 278.731 256.527 278.875 256.679 279.074C256.831 279.274 256.913 279.517 256.914 279.768C256.807 282.539 253.672 282.995 251.489 282.326C249.054 281.308 247.047 279.476 245.813 277.144C245.197 276.287 246.482 275.524 247.179 276.106Z" fill="#0A2540"/>
<path d="M316.943 206.748C316.941 206.563 316.878 206.383 316.764 206.237C316.65 206.09 316.492 205.985 316.312 205.937C316.133 205.889 315.943 205.9 315.772 205.97C315.6 206.039 315.455 206.163 315.36 206.322C313.728 209.02 312.444 211.913 311.538 214.933C308.05 225.008 303.274 234.589 297.329 243.439C291.322 252.188 284.591 260.417 277.206 268.04C275.128 270.205 271.799 272.493 270.513 275.219C270.46 275.319 270.438 275.433 270.448 275.546C270.457 275.659 270.5 275.767 270.569 275.857C270.638 275.946 270.732 276.014 270.839 276.052C270.946 276.091 271.061 276.097 271.172 276.072C274.018 275.413 276.816 272.333 278.916 270.416C281.523 268.042 284.198 265.275 286.579 262.655C287.977 262.935 289.431 263.082 290.808 263.386C296.863 264.755 302.61 267.239 307.756 270.711C307.99 270.839 308.263 270.88 308.525 270.826C308.786 270.772 309.02 270.626 309.184 270.414C309.347 270.203 309.43 269.94 309.417 269.673C309.404 269.406 309.295 269.153 309.112 268.958C306.011 265.668 302.123 263.223 297.815 261.852C294.974 260.812 291.997 260.193 288.977 260.012C300.294 247.323 308.982 235 314.878 216.792C316.142 213.589 316.841 210.19 316.943 206.748Z" fill="#0A2540"/>
<path d="M409.723 228.584C408.956 228.949 409.51 230.076 410.277 229.899C411.633 229.595 411.482 231.083 411.045 231.801C410.166 232.812 409.004 233.536 407.709 233.879C405.952 234.608 402.523 235.842 400.395 236.991C399.511 236.256 398.741 235.644 398.392 235.267C396.868 233.617 395.834 231.272 393.858 230.064C391.79 228.795 390.874 230.292 388.846 230.897C385.493 231.897 378.973 231.076 378.419 235.702C377.182 237.503 376.134 239.507 374.951 241.265C369.16 250.164 361.807 257.941 353.247 264.22C338.262 275.044 329.91 276.521 318.873 279.384C326.792 268.47 336.591 247.696 341.709 223.434C343.576 216.161 344.558 208.689 344.631 201.181C344.622 200.888 344.509 200.607 344.313 200.389C344.116 200.172 343.849 200.031 343.558 199.992C343.268 199.952 342.973 200.018 342.726 200.176C342.479 200.334 342.296 200.574 342.209 200.855C339.074 214.179 338.882 226.736 329.872 250.431C324.412 265.297 316.164 278.984 305.572 290.758C305.489 290.845 305.439 290.958 305.433 291.078C305.426 291.198 305.463 291.316 305.537 291.411C305.61 291.506 305.715 291.572 305.832 291.596C305.95 291.62 306.072 291.601 306.177 291.543C310.474 288.897 314.245 285.479 317.3 281.462C317.905 281.486 318.515 281.486 319.118 281.48C322.015 284.824 324.242 288.695 325.677 292.881C326.859 297.143 327.466 301.543 327.482 305.965C327.49 306.241 327.595 306.506 327.779 306.711C327.964 306.917 328.215 307.05 328.489 307.087C328.763 307.125 329.041 307.063 329.274 306.914C329.506 306.765 329.678 306.538 329.759 306.274C332.295 297.579 327.994 287.493 321.589 281.36C339.53 279.938 360.1 265.499 371.453 251.556C374.622 247.66 380.644 239.129 381.45 234.158C383.682 233.238 386.992 233.668 389.077 233.22C390.01 233.02 391.677 231.942 392.617 232.193C394.218 232.619 394.691 234.866 395.759 235.911C396.613 236.83 397.526 237.693 398.492 238.494C399.21 239.033 401.293 239.969 400.924 241.103C400.587 242.113 398.91 242.049 398.093 241.966C395.277 241.356 392.549 240.392 389.974 239.099C389.84 239.065 389.699 239.071 389.569 239.116C389.438 239.161 389.323 239.243 389.239 239.352C389.154 239.461 389.104 239.593 389.093 239.73C389.082 239.868 389.112 240.006 389.179 240.127C390.888 241.902 393.03 243.2 395.394 243.893C397.758 244.586 400.263 244.65 402.659 244.079C406.185 243.013 404.307 240.517 402.003 238.394C404.349 238.074 406.652 237.493 408.868 236.661C409.871 236.464 410.822 236.064 411.665 235.487C412.508 234.91 413.225 234.167 413.771 233.304C415.165 230.558 412.744 227.131 409.723 228.584Z" fill="#0A2540"/>
<path d="M413.422 238.2C413.613 239.044 413.475 239.93 413.036 240.677C412.187 241.549 411.164 242.233 410.033 242.684C407.633 243.727 405.176 244.633 402.673 245.396C402.033 245.639 401.803 246.805 402.673 246.935C407.443 247.634 416.711 244.533 416.187 239.85C415.903 237.313 413.384 237.162 413.422 238.2Z" fill="#0A2540"/>
<path d="M414.452 247.295C411.822 253.594 405.399 251.006 400.356 253.504C400.175 253.618 400.034 253.786 399.956 253.986C399.878 254.185 399.866 254.404 399.923 254.61C399.979 254.817 400.1 255 400.268 255.132C400.437 255.264 400.643 255.338 400.857 255.344C404.557 255.344 409.021 255.785 412.453 254.065C414.876 252.863 417.232 250.105 416.051 247.284C415.995 247.116 415.888 246.969 415.743 246.865C415.599 246.762 415.425 246.706 415.248 246.708C415.07 246.709 414.897 246.766 414.754 246.872C414.611 246.977 414.506 247.126 414.452 247.295Z" fill="#0A2540"/>
<path d="M395.753 257.009C393.395 258.731 391.888 262.295 386.57 264.303C384.39 265.119 382.066 265.482 379.741 265.37C377.416 265.257 375.138 264.672 373.047 263.649C372.882 263.552 372.684 263.525 372.499 263.573C372.313 263.621 372.155 263.741 372.058 263.907C371.961 264.072 371.934 264.269 371.982 264.455C372.03 264.64 372.15 264.799 372.316 264.896C373.492 265.711 374.745 266.409 376.057 266.98C374.207 269.222 372.565 271.629 371.154 274.17C354.581 298.737 339.914 309.844 317.148 319.025C317.008 319.071 316.891 319.169 316.822 319.299C316.752 319.429 316.735 319.581 316.775 319.722C316.814 319.864 316.906 319.986 317.032 320.062C317.159 320.137 317.309 320.162 317.453 320.129C339.848 316.42 360.959 295.915 373.264 276.504C375.314 273.841 376.937 270.876 378.075 267.714C381.147 268.679 384.44 268.683 387.514 267.724C391.72 266.413 397.211 262.92 397.733 258.132C397.728 257.903 397.663 257.679 397.545 257.482C397.428 257.285 397.261 257.122 397.061 257.009C396.862 256.895 396.636 256.836 396.407 256.836C396.178 256.836 395.952 256.896 395.753 257.009Z" fill="#0A2540"/>
<path d="M340.391 384.497C340.273 386.106 340.775 387.7 341.794 388.951C342.813 390.202 344.271 391.017 345.871 391.228C347.464 391.405 349.065 390.982 350.362 390.04C351.658 389.099 352.557 387.707 352.882 386.138C353.207 384.569 352.934 382.935 352.117 381.557C351.301 380.178 349.999 379.153 348.467 378.684C345.807 377.931 341.186 379.347 341.22 382.672C341.222 382.841 341.268 383.007 341.354 383.153C341.439 383.299 341.562 383.42 341.709 383.505C341.855 383.589 342.022 383.633 342.191 383.633C342.36 383.633 342.527 383.589 342.674 383.505C344.115 382.514 345.019 381.001 347.033 381.161C347.544 381.233 348.035 381.408 348.477 381.674C348.919 381.94 349.303 382.293 349.606 382.71C349.909 383.128 350.125 383.602 350.241 384.105C350.357 384.608 350.371 385.129 350.281 385.637C350.05 386.563 349.516 387.385 348.766 387.974C348.015 388.564 347.09 388.886 346.135 388.892C344.934 388.82 343.797 388.324 342.928 387.491C342.058 386.659 341.513 385.545 341.388 384.347C341.322 383.763 340.423 383.938 340.391 384.497Z" fill="#0A2540"/>
<path d="M399.632 351.031C379.229 352.602 328.036 356.573 322.85 357.025C309.56 358.178 313.448 357.323 298.25 384.448C292.744 394.278 286.92 404.03 282.152 414.245C282.088 414.369 282.075 414.512 282.113 414.645C282.152 414.778 282.24 414.892 282.36 414.962C282.48 415.033 282.622 415.055 282.757 415.023C282.892 414.992 283.011 414.911 283.088 414.795C288.655 406.443 288.647 405.67 311.406 366.09C312.2 364.257 313.409 362.632 314.938 361.346C317.108 359.951 320.331 360.203 322.846 360.032C327.678 359.702 386.58 355.091 396.699 354.292C389.494 365.404 366.318 401.338 358.331 411.915C350.13 413.778 295.481 415.594 286.213 415.579C286.025 415.59 285.848 415.671 285.718 415.808C285.589 415.945 285.517 416.126 285.517 416.314C285.517 416.502 285.589 416.683 285.718 416.82C285.848 416.956 286.025 417.038 286.213 417.048C308.168 419.15 330.748 418.018 352.692 415.95C354.822 415.914 356.942 415.644 359.013 415.145C358.919 416.353 358.844 417.882 358.782 418.485C352.908 418.395 299.111 421.514 282.981 422.072C283.26 420.826 283.473 419.567 283.621 418.299C283.734 417.293 282.28 417.261 281.971 418.086C281.452 419.46 281.024 420.867 280.692 422.298C266.014 421.938 251.346 422.724 236.679 421.597C236.745 420.41 236.809 419.218 236.875 418.031C245.71 418.414 267.227 419.352 276.473 417.656C277.78 417.417 277.405 415.466 276.169 415.42C271.121 415.226 268.996 416.123 255.33 416.078C248.793 416.05 242.264 415.784 235.732 415.571C235.415 415.576 235.112 415.705 234.887 415.93C234.662 416.154 234.534 416.458 234.528 416.775C234.443 418.738 234.355 420.708 234.268 422.673C234.274 422.982 234.399 423.276 234.617 423.495C234.835 423.713 235.13 423.838 235.438 423.844C271.799 426.468 276.307 424.634 282.6 424.246C297.706 423.315 351.096 421.678 359.727 420.584C360.238 420.518 360.831 420.158 360.767 419.544C360.665 418.478 360.575 415.92 360.398 414.416C362.476 412.683 396.36 360.371 400.954 353.326C401.088 353.094 401.159 352.831 401.159 352.562C401.159 352.294 401.088 352.03 400.955 351.798C400.821 351.565 400.628 351.372 400.396 351.237C400.164 351.103 399.9 351.031 399.632 351.031Z" fill="#0A2540"/>
<path d="M379.935 399.465C392.631 400.423 405.382 400.405 418.075 399.411C421.91 399.315 425.723 398.809 429.449 397.902C429.725 397.823 429.963 397.647 430.12 397.407C430.276 397.167 430.342 396.878 430.303 396.594C430.265 396.31 430.126 396.048 429.911 395.858C429.697 395.668 429.421 395.561 429.134 395.558C425.21 395.47 421.19 396.197 417.27 396.493C404.855 397.522 392.394 397.87 379.941 397.538C378.694 397.484 378.716 399.369 379.935 399.465Z" fill="#0A2540"/>
<path d="M169.521 404.678C158.141 404.938 146.781 406.028 135.401 406.409C124.02 406.791 112.604 406.65 101.212 406.9C101.007 406.9 100.809 406.981 100.664 407.127C100.518 407.272 100.437 407.47 100.437 407.675C100.437 407.881 100.518 408.079 100.664 408.224C100.809 408.37 101.007 408.451 101.212 408.451C120.876 410.157 152.984 409.172 169.749 406.345C170.702 406.188 170.468 404.657 169.521 404.678Z" fill="#0A2540"/>
<path d="M229.834 414.91C217.733 414.347 198.433 416.811 182.5 405.407C172.093 397.964 166.445 385.978 163.955 373.602C168.888 377.189 174.588 379.576 180.605 380.575C186.801 381.604 197.444 381.715 202.842 379.46C203.093 379.383 203.31 379.218 203.452 378.997C203.594 378.775 203.652 378.51 203.617 378.249C203.582 377.988 203.455 377.748 203.259 377.572C203.063 377.396 202.811 377.295 202.547 377.288C196.129 377.074 181.114 382.003 163.539 371.334C161.408 358.758 162.437 343.952 163.35 331.109C163.392 330.493 162.369 330.346 162.267 330.962C159.148 349.507 156.85 368.994 164.1 386.942C170.87 403.704 182.965 413.883 201.473 417.257C210.948 419.118 220.687 419.205 230.194 417.513C231.716 417.223 231.27 414.978 229.834 414.91Z" fill="#0A2540"/>
<path d="M274.792 409.822C267.971 403.888 250.801 396.585 242.573 393.409C233.633 389.962 224.455 387.169 215.11 385.051C216.585 382.57 215.952 373.327 215.873 371.445C215.383 359.64 212.889 343.242 207.818 332.437C207.453 331.657 206.294 332.224 206.479 333.002C209.969 348.008 212.661 355.358 212.951 372.453C212.708 376.502 212.757 380.562 213.096 384.603C210.849 384.124 208.59 383.666 206.322 383.269C205.635 383.15 205.324 384.162 206.027 384.335C247.743 394.79 263.943 407.252 274.117 410.952C274.259 410.983 274.407 410.968 274.54 410.91C274.673 410.852 274.785 410.754 274.86 410.629C274.934 410.505 274.968 410.36 274.956 410.215C274.944 410.07 274.887 409.933 274.792 409.822Z" fill="#0A2540"/>
<path d="M286.836 320.801C286.913 326.633 292.352 350.003 282.025 383.409C279.974 390.056 276.86 396.342 274.907 402.992C274.645 403.89 275.833 404.261 276.327 403.591C283.059 394.425 291.483 368.893 290.749 341.611C290.57 334.863 290.451 327.053 288.213 320.615C288.165 320.455 288.061 320.317 287.92 320.226C287.78 320.135 287.611 320.098 287.445 320.12C287.279 320.142 287.127 320.223 287.015 320.348C286.903 320.473 286.84 320.633 286.836 320.801Z" fill="#0A2540"/>
<path d="M130.954 170.518C128.36 174.071 132.272 178.492 134.934 180.696C138.074 183.303 143.064 185.963 147.229 184.733C147.941 184.52 148.235 183.356 147.457 183.002C144.599 181.708 141.519 181.397 138.765 179.771C136.06 178.17 131.466 174.774 132.457 171.149C132.501 170.959 132.476 170.759 132.387 170.586C132.298 170.413 132.151 170.276 131.971 170.201C131.792 170.125 131.591 170.116 131.405 170.174C131.219 170.232 131.059 170.354 130.954 170.518Z" fill="#0A2540"/>
<path d="M134.17 165.069C128.528 169.431 139.712 181.613 147.599 180.003C147.821 179.937 148.02 179.807 148.17 179.63C148.32 179.454 148.416 179.237 148.446 179.007C148.476 178.777 148.439 178.543 148.339 178.334C148.239 178.124 148.08 177.948 147.883 177.827C145.357 176.26 142.392 175.738 139.942 173.952C138.628 173.049 137.479 171.927 136.547 170.633C135.678 169.149 135.25 167.449 135.31 165.73C135.281 165.223 134.677 164.679 134.17 165.069Z" fill="#0A2540"/>
<path d="M141.066 160.815C141.422 157.317 134.224 156.92 136.163 164.519C137.229 168.71 142.319 173.783 146.96 171.818C147.135 171.714 147.28 171.566 147.38 171.389C147.481 171.212 147.534 171.012 147.534 170.809C147.534 170.605 147.481 170.405 147.38 170.228C147.28 170.051 147.135 169.903 146.96 169.799C144.592 168.578 141.222 168.263 139.542 164.357C138.632 162.239 139.218 160.862 139.265 161.064C139.531 162.126 140.968 161.783 141.066 160.815Z" fill="#0A2540"/>
<path d="M146.535 187.336C147.227 189.795 148.41 192.087 150.014 194.075C151.618 196.063 153.608 197.704 155.865 198.9C158.438 200.115 163.452 200.921 165.197 197.887C165.562 197.263 165.112 196.205 164.289 196.304C162.52 196.517 160.619 198.107 156.539 196.075C152.632 194.127 150.215 190.32 147.972 186.731C147.872 186.573 147.719 186.457 147.541 186.401C147.362 186.346 147.17 186.355 146.998 186.427C146.826 186.5 146.686 186.631 146.601 186.797C146.516 186.963 146.493 187.154 146.535 187.336Z" fill="#0A2540"/>
<path d="M216.841 271.508C215.4 271.429 213.958 271.657 212.612 272.177C210.593 269.602 208.165 267.334 206.027 264.857C197.773 255.189 191.036 244.321 186.048 232.628C176.03 208.505 171.472 181.06 168.181 172.575C166.869 168.579 164.384 165.071 161.051 162.507C159.802 161.746 158.478 161.117 157.099 160.629C156.636 160.437 156.033 160.842 155.586 161.026C151.882 162.305 148.292 163.89 144.853 165.766C144.658 165.889 144.503 166.065 144.405 166.274C144.307 166.482 144.27 166.715 144.3 166.943C144.33 167.172 144.425 167.387 144.573 167.563C144.721 167.739 144.917 167.87 145.137 167.938C147.678 169.256 150.493 169.962 153.356 170C154.447 170.011 155.523 169.736 156.474 169.201C157.426 168.667 158.221 167.892 158.779 166.954C158.936 166.566 158.544 166.225 158.207 166.201C156.221 166.043 154.522 167.553 152.452 167.553C151.009 167.495 149.586 167.183 148.251 166.632C151.285 165.411 154.173 163.854 156.86 161.989C164.922 167.715 166.312 173.683 168.584 183.454C174.403 208.633 180.615 234.284 195.41 255.225C199.963 261.625 205.091 267.596 210.73 273.064C207.091 275.327 204.02 278.396 201.756 282.034C201.184 282.903 202.561 284.01 203.224 283.165C205.102 280.867 207.379 278.927 209.947 277.44C212.352 275.993 215.144 275.372 217.495 273.891C217.729 273.743 217.91 273.524 218.01 273.266C218.11 273.007 218.124 272.724 218.051 272.457C217.977 272.19 217.82 271.954 217.602 271.783C217.385 271.612 217.118 271.516 216.841 271.508Z" fill="#0A2540"/>
<path d="M186.347 260.481C179.842 259.516 169.934 268.541 167.163 274.486C156.008 250.936 157.174 227.73 159.108 203.125C159.163 202.4 158.067 202.296 157.878 202.954C150.119 229.552 154.657 267.712 172.524 290.814C169.386 290.494 166.28 289.913 163.239 289.077C162.929 288.995 162.602 289.016 162.305 289.137C162.009 289.258 161.76 289.471 161.595 289.746L161.041 290.752C152.061 288.046 143.853 283.24 137.099 276.733C125.162 265.312 121.777 254.69 119.923 251.693C120.119 245.211 114.46 237.303 108.314 237.373C108.16 237.377 108.011 237.426 107.884 237.513C107.758 237.601 107.659 237.723 107.6 237.865C107.541 238.007 107.525 238.164 107.553 238.315C107.581 238.466 107.652 238.606 107.758 238.718C110.252 240.905 113.23 242.412 115.161 245.217C117.61 248.775 116.76 252.121 117.028 256.063C117.064 256.623 117.855 257.128 118.279 256.581C118.475 256.321 118.655 256.05 118.819 255.768C120.449 259.444 122.441 262.947 124.766 266.228C133.079 278.873 145.429 289.332 160.197 292.287C154.932 301.018 151.922 310.922 151.438 321.106C146.86 318.998 141.806 317.896 133.533 312.049C122.88 304.308 115.116 293.231 111.475 280.576C108.719 271.542 108.519 261.647 108.02 260.65C108.219 260.536 108.411 260.41 108.596 260.275C108.697 260.211 108.774 260.117 108.818 260.006C108.861 259.895 108.868 259.773 108.837 259.658C108.806 259.543 108.739 259.441 108.646 259.367C108.552 259.293 108.438 259.251 108.318 259.247C106.024 259.556 103.698 259.55 101.406 259.23C99.2613 258.708 97.6243 257.237 95.5502 256.606C95.4165 256.574 95.2762 256.581 95.1463 256.626C95.0164 256.672 94.9025 256.754 94.8184 256.863C94.7343 256.972 94.6835 257.103 94.6723 257.24C94.6611 257.377 94.6899 257.515 94.7552 257.636C96.437 261.172 101.525 262.479 105.505 261.603C105.889 275.097 110.151 288.196 117.783 299.332C121.555 304.735 126.165 309.503 131.438 313.456C136.447 317.222 145.506 322.261 151.283 323.316C151.244 323.934 151.206 324.568 151.172 325.216C151.169 325.458 151.231 325.696 151.352 325.906C151.473 326.116 151.648 326.29 151.858 326.409C161.533 330.88 172.209 332.74 182.826 331.802C183.108 331.802 183.38 331.69 183.579 331.49C183.779 331.29 183.892 331.019 183.892 330.736C183.892 330.454 183.779 330.183 183.579 329.983C183.38 329.783 183.108 329.671 182.826 329.671C172.975 329.469 163.225 327.65 153.964 324.288C154.097 312.928 157.385 301.828 163.46 292.227C166.867 293.195 170.459 293.309 173.92 292.56C176.265 295.4 178.883 298.003 181.737 300.331C182.031 300.607 182.42 300.757 182.823 300.751C183.226 300.744 183.61 300.581 183.895 300.296C184.18 300.011 184.343 299.627 184.349 299.224C184.356 298.821 184.205 298.432 183.93 298.138C177.8 291.847 172.575 284.735 168.404 277.005C170.312 273.656 172.857 270.712 175.896 268.341C179.041 265.638 182.66 263.542 186.569 262.159C186.724 262.067 186.848 261.931 186.926 261.769C187.005 261.607 187.034 261.426 187.011 261.247C186.987 261.069 186.912 260.901 186.794 260.765C186.676 260.629 186.521 260.53 186.347 260.481Z" fill="#0A2540"/>
<path d="M70.1049 244.895C67.1261 244.777 64.1525 245.237 61.3484 246.249C58.4456 246.903 55.6901 248.092 53.2228 249.755C53.0335 249.876 52.893 250.06 52.8262 250.275C52.7595 250.489 52.7707 250.721 52.8579 250.928C52.9451 251.135 53.1028 251.304 53.3029 251.407C53.5031 251.509 53.7329 251.537 53.9518 251.486C56.8912 250.968 59.7071 249.689 62.5996 248.894C65.3175 248.377 67.999 247.684 70.6272 246.82C71.7015 246.37 70.9682 245.006 70.1049 244.895Z" fill="#0A2540"/>
<path d="M72.2097 238.462C66.6185 237.976 60.2131 237.929 55.2124 240.915C55.0353 241.028 54.9038 241.199 54.8412 241.4C54.7786 241.6 54.789 241.816 54.8705 242.009C54.9521 242.202 55.0995 242.36 55.2866 242.455C55.4737 242.55 55.6883 242.575 55.8924 242.527C61.3834 241.546 66.5226 239.703 72.2097 239.779C73.0687 239.79 73.041 238.534 72.2097 238.462Z" fill="#0A2540"/>
<path d="M77.1398 231.485C74.1582 230.61 71.015 230.434 67.9542 230.97C64.8934 231.506 61.9972 232.74 59.4903 234.576C59.3178 234.68 59.193 234.847 59.1431 235.042C59.0931 235.237 59.122 235.444 59.2235 235.618C59.325 235.792 59.491 235.918 59.6853 235.971C59.8797 236.023 60.0869 235.997 60.262 235.897C65.3724 233.571 71.0312 232.717 76.6006 233.433C77.8369 233.602 78.4188 231.843 77.1398 231.485Z" fill="#0A2540"/>
<path d="M392.768 211.51C394.62 210.96 400.229 209.551 401.019 209.982C402.13 210.575 406.817 226.041 407.224 229.209C407.519 231.496 401.955 234.111 401.256 234.31C400.527 234.523 399.139 230.526 395.405 228.181C393.231 223.56 391.608 218.7 390.568 213.699C390.43 212.414 392.627 211.553 392.768 211.51Z" fill="#66DD98"/>
<path d="M399.631 208.059C400.013 207.565 399.593 205.774 399.403 205.181C399.306 204.885 399.139 204.617 398.916 204.399C398.694 204.181 398.422 204.019 398.124 203.928C397.319 203.689 388.948 204.691 388.37 206.356C388.324 206.998 388.435 207.641 388.695 208.229C388.956 208.817 389.356 209.333 389.862 209.73C390.586 210.099 391.418 210.196 392.207 210.003C394.733 209.568 397.217 208.918 399.631 208.059Z" fill="#66DD98"/>
<path d="M404.601 270.282C405.453 272.84 406.415 273.324 408.497 273.074C410.756 272.851 412.949 272.181 414.947 271.105C415.8 270.252 415.512 268.835 415.161 267.694C414.278 264.77 413.398 261.845 412.52 258.921C409.904 259.1 408.282 261.052 404.296 260.901C402.778 260.848 401.983 260.281 402.354 262.137C402.931 264.897 403.682 267.617 404.601 270.282Z" fill="#66DD98"/>
<path d="M413.332 280.842C413.462 280.755 416.199 274.426 415.845 273.808C415.491 273.19 409.593 273.948 408.013 275.021C407.374 275.447 408.195 276.18 408.574 276.621C409.678 277.881 412.895 281.134 413.332 280.842Z" fill="#66DD98"/>
<path d="M431.394 254.773C431.202 254.752 422.109 263.645 417.396 266.61C418.601 269.699 419.399 272.932 419.768 276.227C417.925 279.407 415.755 282.385 413.293 285.114C410.303 283.125 407.766 280.528 405.847 277.494C405.02 276.238 383.678 294.589 383.593 294.96C383.48 295.465 408.801 327.168 409.144 327.228C409.547 327.298 420.482 318.684 425.536 314.564C431.622 309.599 457.453 285.197 457.414 284.952C457.393 284.792 431.545 254.794 431.394 254.773ZM437.403 274.153C435.536 279.776 431.034 285.125 427.448 289.767C424.323 293.817 420.862 299.182 416.313 301.747C410.707 304.901 403.541 300.255 403.643 292.044C403.884 290.765 401.247 293.382 400.307 294.256C399.171 295.303 398.157 296.476 397.286 297.752C396.849 298.392 395.615 297.997 395.941 297.174C396.722 295.115 397.894 293.227 399.392 291.613C400.616 290.334 402.647 288.203 404.606 288.542C406.254 288.827 406.525 290.176 406.761 291.596C407.245 294.501 407.827 298.377 411.355 299.112C414.522 299.771 416.684 296.375 418.389 294.248C430.051 279.585 430.61 275.874 433.95 272.135C434.279 271.831 434.697 271.641 435.142 271.592C435.588 271.544 436.037 271.64 436.423 271.866C436.81 272.092 437.114 272.436 437.29 272.848C437.467 273.26 437.506 273.717 437.403 274.153Z" fill="#66DD98"/>
<path d="M326.242 153.478C326.826 153.405 327.427 153.39 327.682 152.625C328.669 149.62 324.739 149.07 323.306 151.259C322.323 153.221 321.755 155.364 321.637 157.556C321.138 159.885 321.164 162.296 321.714 164.613C321.785 164.846 321.928 165.05 322.124 165.194C322.319 165.339 322.556 165.417 322.799 165.417C323.042 165.417 323.279 165.339 323.474 165.194C323.67 165.05 323.813 164.846 323.884 164.613C324.205 162.808 324.392 160.982 324.445 159.15C324.658 156.912 325.146 154.674 325.474 152.465C325.408 152.917 325.67 153.548 326.242 153.478Z" fill="#0A2540"/>
<path d="M335.1 150.31C333.437 147.904 330.961 149.901 329.974 151.828C328.435 154.849 327.497 159.378 329.272 162.473C329.408 162.69 329.609 162.857 329.846 162.95C330.083 163.043 330.345 163.058 330.591 162.992C330.837 162.925 331.056 162.781 331.214 162.581C331.372 162.381 331.462 162.136 331.47 161.881C331.7 160.133 331.421 158.338 331.662 156.569C331.736 156.036 332.815 150.899 333.845 151.562C334.595 152.041 335.624 151.067 335.1 150.31Z" fill="#0A2540"/>
<path d="M341.86 148.863C341.711 148.369 341.457 147.823 340.909 147.746C338.426 147.392 337.332 149.353 336.859 151.54C336.224 154.238 336.506 157.069 337.658 159.589C337.968 160.269 338.867 159.834 338.927 159.246C339.134 156.477 339.534 153.725 340.125 151.012C340.711 149.965 342.177 149.908 341.86 148.863Z" fill="#0A2540"/>
<path d="M133.056 209.72C134.697 210.116 144.554 191.697 144.583 191.281C144.682 190.077 138.651 186.264 138.27 186.362C137.409 186.59 132.099 209.494 133.056 209.72Z" fill="#66DD98"/>
<path d="M151.164 143.432C152.869 140.448 155.723 143.334 155.527 145.717C154.578 150.842 152.967 155.822 150.733 160.531C149.369 161.857 147.705 162.835 145.884 163.383C144.451 163.81 145.901 160.84 146.097 159.649C147.341 154.114 149.036 148.691 151.164 143.432Z" fill="#66DD98"/>
<path d="M150.775 130.325C155.39 127.532 157.001 126.488 157.954 122.438C158.058 121.986 159.832 123.661 161.151 125.97C162.047 127.645 162.772 129.406 163.317 131.226C162.22 131.339 161.167 131.714 160.245 132.32C159.324 132.925 158.561 133.743 158.022 134.705C157.36 135.617 156.904 136.663 156.686 137.769C156.468 138.875 156.493 140.015 156.76 141.11C154.07 139.33 149.483 140.669 147.503 138.16C145.463 135.587 146.676 132.806 150.775 130.325Z" fill="#66DD98"/>
<path d="M161.051 136.975C162.329 135.255 164.121 133.986 166.167 133.351C167.943 132.679 169.542 131.609 170.842 130.225C172.141 128.84 173.107 127.177 173.666 125.362C180.822 132.262 179.398 143.693 173.824 146.722C172.351 147.457 170.748 147.893 169.106 148.005C167.464 148.117 165.816 147.904 164.257 147.377C163.334 146.937 162.511 146.31 161.843 145.536C161.174 144.761 160.673 143.857 160.371 142.879C160.07 141.902 159.975 140.872 160.092 139.856C160.209 138.839 160.536 137.858 161.051 136.975Z" fill="#66DD98"/>
<path d="M162.015 148.198C162.655 147.921 166.08 150.037 165.954 151.274C165.901 151.817 162.162 158.898 161.143 158.822C159.125 158.675 156.083 159.461 156.339 157.543C156.703 154.991 161.508 148.422 162.015 148.198Z" fill="#66DD98"/>
<path d="M56.3049 275.449C57.2151 268.596 64.1428 265.516 66.3511 266.06C67.321 266.61 67.9583 268.737 65.264 269.02C62.6848 269.293 55.885 274 62.6507 279.678C63.8976 280.723 63.5608 283.336 61.4314 282.955C59.7663 282.62 58.298 281.648 57.3401 280.246C56.3822 278.843 56.0107 277.122 56.3049 275.449Z" fill="#66DD98"/>
<path d="M95.5391 331.621C92.768 327.703 87.9421 311.722 84.0072 302.774C81.1871 296.368 78.3585 290.018 76.1054 283.421C75.8923 282.801 79.8719 280.011 80.3942 279.731C82.5705 282.076 97.1463 313.344 101.117 324.518C101.488 325.567 96.2361 332.605 95.5391 331.621Z" fill="#66DD98"/>
<path d="M242.111 170.258C239.585 162.87 231.24 159.47 228.597 152.205C225.093 142.545 231.901 132.906 241.114 130.173C245.079 128.916 249.362 129.114 253.194 130.732C257.026 132.35 260.156 135.282 262.02 139C265.034 145.384 265.181 152.314 260.626 157.892C257.452 161.772 253.334 165.3 253.065 170.671C253.019 171.622 254.617 171.867 254.758 170.899C255.564 165.325 261.475 162.098 264.418 157.651C268.664 151.246 267.586 142.73 263.832 136.319C253.927 119.37 225.903 126.694 225.25 146.211C224.811 159.109 235.955 161.559 240.926 170.752C241.271 171.394 242.35 170.959 242.111 170.258Z" fill="#66DD98"/>
<path d="M238.759 175.024C241.525 176.574 244.676 177.299 247.842 177.115C250.276 177.158 254.558 177.311 256.155 175.069C256.237 174.928 256.285 174.77 256.296 174.607C256.307 174.444 256.281 174.281 256.219 174.13C256.157 173.979 256.062 173.845 255.94 173.736C255.818 173.628 255.672 173.549 255.515 173.506C252.946 173.5 250.38 173.698 247.842 174.099C245.019 174.335 242.177 174.119 239.422 173.459C238.448 173.142 237.987 174.502 238.759 175.024Z" fill="#0A2540"/>
<path d="M238.758 179.971C241.523 181.525 244.676 182.25 247.841 182.06C250.275 182.105 254.558 182.256 256.154 180.014C256.236 179.873 256.284 179.715 256.295 179.553C256.306 179.39 256.279 179.228 256.217 179.077C256.156 178.926 256.06 178.792 255.938 178.684C255.817 178.576 255.672 178.497 255.515 178.454C252.945 178.448 250.379 178.646 247.841 179.046C245.018 179.282 242.176 179.066 239.421 178.407C238.447 178.083 237.985 179.439 238.758 179.971Z" fill="#0A2540"/>
<path d="M238.758 184.981C241.523 186.534 244.676 187.26 247.841 187.072C250.275 187.114 254.558 187.268 256.154 185.025C256.236 184.884 256.284 184.726 256.296 184.564C256.307 184.401 256.28 184.238 256.219 184.087C256.157 183.936 256.061 183.801 255.939 183.693C255.817 183.585 255.672 183.506 255.515 183.463C252.945 183.457 250.379 183.655 247.841 184.055C245.018 184.291 242.176 184.075 239.421 183.416C238.447 183.101 237.985 184.463 238.758 184.981Z" fill="#0A2540"/>
<path d="M245.749 169.126C244.525 166.043 243.875 162.654 242.929 159.47C242.2 157.027 241.671 153.324 239.582 151.666C239.496 151.586 239.388 151.532 239.272 151.512C239.157 151.491 239.037 151.504 238.929 151.548C238.82 151.593 238.726 151.668 238.659 151.765C238.592 151.861 238.553 151.975 238.548 152.092C238.314 154.863 240.332 158.336 241.198 160.953C242.223 163.881 243.427 166.743 244.802 169.524C245.049 170.059 245.962 169.673 245.749 169.126Z" fill="#0A2540"/>
<path d="M250.209 169.767C251.223 167.298 252.013 164.743 252.569 162.132C253.291 159.242 254.374 156.515 255.246 153.678C255.303 153.446 255.275 153.201 255.168 152.988C255.06 152.774 254.88 152.606 254.659 152.513C254.439 152.421 254.193 152.41 253.965 152.483C253.737 152.556 253.543 152.708 253.417 152.911C250.747 158.054 249.399 163.781 249.493 169.576C249.497 169.925 250.047 170.126 250.209 169.767Z" fill="#0A2540"/>
<path d="M240.164 151.18C241.56 149.807 241.229 151.649 241.944 152.742C242.48 153.626 243.342 154.263 244.344 154.518C246.439 154.995 247.413 153.531 248.012 151.775C248.272 151.012 248.549 148.65 249.095 150.283C249.361 151.088 248.995 152.024 249.387 152.84C250.557 155.236 252.968 153.979 253.296 151.873C253.384 151.295 252.768 150.545 252.158 150.997C250.911 151.922 251.538 151.018 251.348 149.841C250.762 146.218 247.592 146.16 246.356 148.776C246.026 149.479 245.872 151.333 245.269 151.802C244.148 152.655 243.5 150.491 243.02 149.794C241.807 148.025 240.249 148.835 239.281 150.506C239.219 150.624 239.2 150.76 239.229 150.89C239.257 151.02 239.331 151.136 239.437 151.217C239.543 151.298 239.674 151.338 239.807 151.332C239.94 151.325 240.067 151.271 240.164 151.18Z" fill="#66DD98"/>
<path d="M99.3551 207.091C92.5042 215.404 65.4267 257.945 64.9108 259.29C63.9729 261.717 62.2101 262.828 65.352 263.817C67.9909 264.65 84.1547 268.694 84.2102 268.596C89.2897 259.763 114.752 220.753 119.793 210.971C113.153 208.891 106.295 207.589 99.3551 207.091ZM87.9106 249.962C82.1084 258.799 81.3475 260.888 79.915 260.319C77.5319 259.36 74.9889 258.81 72.6676 257.689C71.6935 257.216 71.5699 257.184 71.8619 256.197C72.5764 254.601 73.4903 253.101 74.5818 251.735C75.7734 249.817 77.0459 247.969 78.3696 246.129C78.528 245.869 78.7657 245.667 79.0477 245.551C79.3297 245.436 79.6411 245.415 79.9363 245.49C82.3152 246.342 84.7026 247.148 87.0985 247.939C87.2991 247.999 87.4835 248.104 87.6381 248.245C87.7928 248.386 87.9136 248.56 87.9916 248.755C88.0696 248.949 88.1029 249.159 88.0888 249.367C88.0748 249.576 88.0139 249.78 87.9106 249.962ZM99.0396 232.302C93.3802 240.945 92.502 243.245 91.044 242.67C88.9828 241.847 86.8171 241.32 84.7367 240.538C83.6218 240.112 82.4942 240.058 82.9632 238.605C84.5724 235.222 86.5958 232.052 88.987 229.168C89.1511 228.909 89.3924 228.708 89.677 228.593C89.9615 228.478 90.2749 228.456 90.5729 228.529C93.1138 229.143 95.6625 229.73 98.2189 230.291C98.4197 230.349 98.6047 230.452 98.76 230.592C98.9154 230.731 99.0372 230.904 99.1161 231.098C99.1951 231.291 99.2292 231.5 99.216 231.708C99.2027 231.917 99.1424 232.12 99.0396 232.302ZM102.105 227.375C101.005 226.949 92.939 225.406 93.3653 224.061C94.5185 220.409 97.7734 216.975 100.005 213.912C100.168 213.653 100.409 213.452 100.693 213.337C100.977 213.222 101.289 213.2 101.587 213.273C104.145 213.878 106.712 214.454 109.288 214.999C109.489 215.055 109.675 215.156 109.831 215.295C109.987 215.434 110.11 215.606 110.189 215.799C110.269 215.992 110.303 216.201 110.289 216.409C110.276 216.617 110.215 216.82 110.111 217.001C104.345 225.749 103.584 227.949 102.105 227.369V227.375Z" fill="#66DD98"/>
<path d="M72.2898 281.771C69.8022 280.844 60.8943 286.674 53.5191 289.718C51.2447 290.654 53.0778 293.403 53.7322 294.883C58.1339 304.859 60.127 311.739 63.3243 319.658C66.3832 327.223 71.5309 340.496 74.4491 348.128C75.8517 351.783 88.9588 341.061 93.1324 337.644C95.1041 336.033 73.5623 282.247 72.2898 281.771ZM60.5512 297.79C60.0055 296.582 58.8459 295.139 59.1571 293.74C59.4406 292.451 61.9878 291.302 62.9769 290.639C64.1747 289.562 65.6297 288.812 67.2017 288.46C68.9539 288.39 69.15 289.935 69.6999 291.263C70.5312 293.278 71.484 295.271 72.4198 297.232C72.603 297.558 72.6527 297.943 72.5585 298.305C72.4644 298.668 72.2336 298.98 71.9146 299.176C69.1137 300.359 65.505 303.652 64.2836 303.731C62.6955 303.82 61.4144 299.692 60.5512 297.79ZM70.8147 320.811C70.6012 320.651 70.4276 320.444 70.3074 320.206C68.681 317.524 65.9547 313.894 65.6925 310.667C65.5582 309.039 67.5598 308.386 68.7684 307.683C69.977 306.979 75.1845 303.207 76.3057 305.654C77.6337 308.544 78.9041 311.449 80.1766 314.361C80.3556 314.685 80.4027 315.065 80.3082 315.422C80.2137 315.78 79.9848 316.087 79.6693 316.28C78.1346 317.132 76.5998 317.985 75.0651 318.837C74.3084 319.249 71.6205 321.312 70.8147 320.801V320.811ZM85.8083 334.149C80.053 337.374 80.2981 337.836 78.9403 338.331C77.3992 338.885 77.2478 338.188 76.6702 336.849C75.3233 334.043 74.2415 331.117 73.4387 328.11C72.9698 326.012 75.2953 325.978 81.3959 322.581C81.5693 322.483 81.7626 322.425 81.9614 322.412C82.1601 322.4 82.3592 322.432 82.5436 322.507C82.7281 322.582 82.8932 322.698 83.0267 322.846C83.1602 322.993 83.2585 323.17 83.3143 323.361C84.3247 326.483 85.431 329.574 86.4051 332.71C86.4736 332.98 86.4524 333.266 86.3448 333.523C86.2372 333.781 86.0489 333.997 85.8083 334.138V334.149Z" fill="#66DD98"/>
<path d="M248.23 121.188C248.92 116.955 249.067 114.367 250.056 94.9273C250.412 91.9382 250.427 88.9182 250.101 85.9257C249.862 84.619 247.929 84.7661 247.597 85.9257C246.972 88.1404 247.019 89.2126 246.503 103.053C246.077 108.997 245.962 114.959 246.16 120.916C246.243 122.009 248.025 122.433 248.23 121.188Z" fill="#66DD98"/>
<path d="M263.826 127.185C269.155 122.118 274.339 116.629 283.795 107.244C286.187 105.312 288.31 103.07 290.109 100.576C290.294 100.237 290.364 99.8468 290.309 99.4644C290.254 99.0819 290.076 98.7275 289.803 98.4544C289.53 98.1813 289.175 98.004 288.792 97.9492C288.41 97.8944 288.02 97.965 287.681 98.1504C285.118 99.8589 282.827 101.943 280.883 104.332C274.103 111.036 267.793 118.198 261.997 125.769C261.177 126.865 262.897 128.067 263.826 127.185Z" fill="#66DD98"/>
<path d="M273.056 141.814C277.782 141.837 282.501 141.705 287.219 141.46C290.842 141.27 296.031 141.824 298.929 139.301C299.035 139.193 299.115 139.063 299.164 138.92C299.212 138.777 299.227 138.625 299.207 138.476C299.188 138.326 299.135 138.183 299.052 138.057C298.969 137.931 298.859 137.826 298.729 137.749C295.393 135.653 289.843 137.195 286.168 137.574C281.671 138.043 277.191 138.642 272.726 139.371C271.328 139.605 271.696 141.807 273.056 141.814Z" fill="#66DD98"/>
<path d="M271.224 156.748C272.971 158.324 274.842 159.756 276.819 161.032C278.484 162.038 280.828 163.688 282.817 162.936C283.015 162.876 283.197 162.772 283.349 162.633C283.502 162.494 283.622 162.322 283.699 162.131C283.777 161.939 283.811 161.733 283.798 161.526C283.786 161.32 283.727 161.119 283.627 160.939C282.47 158.536 278.827 158.72 272.78 154.729C271.577 153.934 270.1 155.797 271.224 156.748Z" fill="#66DD98"/>
<path d="M234.497 123.284C229.807 115.284 225.678 106.534 220.709 98.5192C219.198 96.0806 217.625 92.9024 214.899 91.6725C214.033 91.2824 212.541 91.7109 212.705 92.9301C213.416 95.6719 214.714 98.2268 216.508 100.418C221.624 108.58 225.638 117.055 232.708 124.665C232.907 124.848 233.165 124.954 233.435 124.965C233.704 124.976 233.97 124.892 234.183 124.727C234.397 124.562 234.546 124.326 234.603 124.062C234.66 123.798 234.623 123.523 234.497 123.284Z" fill="#66DD98"/>
<path d="M222.583 133.575C217.694 131.64 212.663 130.084 207.534 128.922C203.007 127.948 197.667 126.532 193.067 127.522C192.788 127.605 192.538 127.768 192.349 127.991C192.16 128.213 192.039 128.486 192.001 128.775C191.963 129.065 192.01 129.359 192.136 129.623C192.261 129.886 192.46 130.108 192.709 130.261C198.072 132.697 203 131.844 221.963 135.828C222.262 135.911 222.581 135.871 222.85 135.718C223.12 135.565 223.318 135.311 223.4 135.012C223.482 134.713 223.442 134.394 223.289 134.124C223.136 133.855 222.882 133.657 222.583 133.575Z" fill="#66DD98"/>
<path d="M221.649 155.552C218.655 156.529 215.837 157.977 213.299 159.84C210.681 161.392 208.444 163.51 206.751 166.039C206.595 166.328 206.536 166.659 206.583 166.983C206.63 167.308 206.781 167.609 207.013 167.841C207.245 168.073 207.545 168.224 207.87 168.271C208.195 168.318 208.526 168.259 208.814 168.103C211.223 166.554 213.481 164.783 215.559 162.812C217.871 161.066 220.212 159.367 222.514 157.619C223.443 156.907 222.974 155.111 221.649 155.552Z" fill="#66DD98"/>
<path d="M319.743 329.274C317.909 324.78 315.184 320.705 311.732 317.294C311.225 316.855 310.24 317.262 310.506 318.008C312.719 324.29 315.912 325.978 318.709 335.913C319.089 338.043 319.683 340.129 320.482 342.14C319.646 342.857 318.865 343.637 318.148 344.474C314.266 347.894 309.732 350.493 304.819 352.116C302.321 352.928 299.64 353.143 297.184 354.021C296.985 354.083 296.811 354.207 296.687 354.374C296.563 354.542 296.497 354.745 296.497 354.954C296.497 355.162 296.563 355.365 296.687 355.533C296.811 355.701 296.985 355.825 297.184 355.886C303.383 357.295 312.985 352.022 317.615 348.3C318.832 352.252 318.681 353.814 319.689 354.74C319.821 354.866 319.98 354.961 320.153 355.019C320.327 355.076 320.511 355.093 320.692 355.07C320.874 355.046 321.047 354.982 321.2 354.883C321.354 354.783 321.483 354.65 321.578 354.494C322.296 353.345 321.642 351.527 321.256 350.346C320.84 349.044 320.273 347.795 319.568 346.625C320.499 345.772 322.094 344.421 322.339 343.071C322.546 342.939 322.694 342.732 322.752 342.494C323.82 338.369 321.439 333.002 319.743 329.274Z" fill="#0A2540"/>
</svg>
